<svg width="18" height="18" viewBox="0 0 18 18" fill="none" xmlns="http://www.w3.org/2000/svg">
<path d="M13.53 10.1625C13.215 10.47 13.035 10.9125 13.08 11.385C13.1475 12.195 13.89 12.7875 14.7 12.7875H16.125V13.68C16.125 15.2325 14.8575 16.5 13.305 16.5H4.695C3.1425 16.5 1.875 15.2325 1.875 13.68V8.63251C1.875 7.08001 3.1425 5.8125 4.695 5.8125H13.305C14.8575 5.8125 16.125 7.08001 16.125 8.63251V9.71251H14.61C14.19 9.71251 13.8075 9.87749 13.53 10.1625Z" stroke="#4790FF" stroke-width="1.5" stroke-linecap="round" stroke-linejoin="round"/>
<path d="M1.875 9.30455V5.87709C1.875 4.98459 2.4225 4.18955 3.255 3.87455L9.21 1.62455C10.14 1.27205 11.1375 1.96208 11.1375 2.95958V5.80957" stroke="#4790FF" stroke-width="1.5" stroke-linecap="round" stroke-linejoin="round"/>
<path d="M16.9191 10.4759V12.021C16.9191 12.4335 16.5891 12.7709 16.1691 12.7859H14.6991C13.8891 12.7859 13.1466 12.1934 13.0791 11.3834C13.0341 10.9109 13.2141 10.4684 13.5291 10.1609C13.8066 9.87592 14.1891 9.71094 14.6091 9.71094H16.1691C16.5891 9.72594 16.9191 10.0634 16.9191 10.4759Z" stroke="#4790FF" stroke-width="1.5" stroke-linecap="round" stroke-linejoin="round"/>
<path d="M5.25 9H10.5" stroke="#4790FF" stroke-width="1.5" stroke-linecap="round" stroke-linejoin="round"/>
</svg>
