<svg width="18" height="18" viewBox="0 0 18 18" fill="none" xmlns="http://www.w3.org/2000/svg">
<path d="M16.5 9.75V6.75C16.5 3 15 1.5 11.25 1.5H6.75C3 1.5 1.5 3 1.5 6.75V11.25C1.5 15 3 16.5 6.75 16.5H9.75" stroke="#4790FF" stroke-width="1.5" stroke-linecap="round" stroke-linejoin="round"/>
<path d="M5.49756 10.8678L7.28256 8.55031C7.53756 8.22031 8.01007 8.16032 8.34007 8.41532L9.71258 9.49532C10.0426 9.75032 10.5151 9.69032 10.7701 9.36782L12.5026 7.13281" stroke="#4790FF" stroke-width="1.5" stroke-linecap="round" stroke-linejoin="round"/>
<path d="M14.6099 11.8631L14.8199 12.2906C14.9249 12.5006 15.1874 12.6956 15.4199 12.7406L15.7049 12.7856C16.5599 12.9281 16.7624 13.5581 16.1474 14.1806L15.8849 14.4431C15.7124 14.6231 15.6149 14.9681 15.6674 15.2081L15.7049 15.3656C15.9374 16.4006 15.3899 16.7981 14.4899 16.2581L14.2949 16.1456C14.0624 16.0106 13.6874 16.0106 13.4549 16.1456L13.2599 16.2581C12.3524 16.8056 11.8049 16.4006 12.0449 15.3656L12.0824 15.2081C12.1349 14.9681 12.0374 14.6231 11.8649 14.4431L11.6024 14.1806C10.9874 13.5581 11.1899 12.9281 12.0449 12.7856L12.3299 12.7406C12.5549 12.7031 12.8249 12.5006 12.9299 12.2906L13.1399 11.8631C13.5449 11.0456 14.2049 11.0456 14.6099 11.8631Z" stroke="#4790FF" stroke-width="1.5" stroke-linecap="round" stroke-linejoin="round"/>
</svg>
