<svg width="17" height="16" viewBox="0 0 17 16" fill="none" xmlns="http://www.w3.org/2000/svg">
<path d="M6.16536 12.6693H5.83203C3.16536 12.6693 1.83203 12.0026 1.83203 8.66927V5.33594C1.83203 2.66927 3.16536 1.33594 5.83203 1.33594H11.1654C13.832 1.33594 15.1654 2.66927 15.1654 5.33594V8.66927C15.1654 11.3359 13.832 12.6693 11.1654 12.6693H10.832C10.6254 12.6693 10.4254 12.7693 10.2987 12.9359L9.2987 14.2693C8.8587 14.8559 8.1387 14.8559 7.6987 14.2693L6.6987 12.9359C6.59203 12.7893 6.34536 12.6693 6.16536 12.6693Z" stroke="#4790FF" stroke-width="1.5" stroke-miterlimit="10" stroke-linecap="round" stroke-linejoin="round"/>
<path d="M11.1656 7.33333H11.1716" stroke="#4790FF" stroke-width="1.5" stroke-linecap="round" stroke-linejoin="round"/>
<path d="M8.49764 7.33333H8.50363" stroke="#4790FF" stroke-width="1.5" stroke-linecap="round" stroke-linejoin="round"/>
<path d="M5.82967 7.33333H5.83566" stroke="#4790FF" stroke-width="1.5" stroke-linecap="round" stroke-linejoin="round"/>
</svg>
