<svg width="16" height="16" viewBox="0 0 16 16" fill="none" xmlns="http://www.w3.org/2000/svg">
<path d="M12.8663 5.27706V8.71041C12.8663 10.7637 11.693 11.6437 9.93298 11.6437H4.07298C3.77298 11.6437 3.48631 11.6171 3.21965 11.5571C3.05298 11.5304 2.89298 11.4838 2.74632 11.4304C1.74632 11.0571 1.13965 10.1904 1.13965 8.71041V5.27706C1.13965 3.22373 2.31298 2.34375 4.07298 2.34375H9.93298C11.4263 2.34375 12.4996 2.97708 12.7863 4.42375C12.833 4.69041 12.8663 4.96373 12.8663 5.27706Z" stroke="#575E6A" stroke-miterlimit="10" stroke-linecap="round" stroke-linejoin="round"/>
<path d="M14.8664 7.27519V10.7085C14.8664 12.7619 13.6931 13.6418 11.9331 13.6418H6.07306C5.57973 13.6418 5.13307 13.5752 4.7464 13.4285C3.95307 13.1352 3.41306 12.5286 3.21973 11.5552C3.48639 11.6152 3.77306 11.6418 4.07306 11.6418H9.93306C11.6931 11.6418 12.8664 10.7619 12.8664 8.70854V5.27519C12.8664 4.96185 12.8397 4.68187 12.7864 4.42188C14.0531 4.68854 14.8664 5.58185 14.8664 7.27519Z" stroke="#575E6A" stroke-miterlimit="10" stroke-linecap="round" stroke-linejoin="round"/>
<path d="M6.99829 8.75439C7.97031 8.75439 8.7583 7.96641 8.7583 6.99438C8.7583 6.02236 7.97031 5.23438 6.99829 5.23438C6.02627 5.23438 5.23828 6.02236 5.23828 6.99438C5.23828 7.96641 6.02627 8.75439 6.99829 8.75439Z" stroke="#575E6A" stroke-miterlimit="10" stroke-linecap="round" stroke-linejoin="round"/>
<path d="M3.18555 5.53125V8.4646" stroke="#575E6A" stroke-miterlimit="10" stroke-linecap="round" stroke-linejoin="round"/>
<path d="M10.8135 5.53125V8.4646" stroke="#575E6A" stroke-miterlimit="10" stroke-linecap="round" stroke-linejoin="round"/>
</svg>
